<?xml version="1.0" encoding="UTF-8" standalone="no"?> <!--Generator: Xara Designer (www.xara.com), SVG filter version: 6.0.0.4--> <svg xmlns:xlink="http://www.w3.org/1999/xlink" xmlns="http://www.w3.org/2000/svg" stroke-width="0.501" stroke-linejoin="bevel" fill-rule="evenodd" overflow="visible" width="207.25pt" height="30.5pt" viewBox="0 0 107.25 16.5"> <defs> </defs> <g id="Document" fill="none" stroke="black" font-family="Times New Roman" font-size="16" transform="scale(1 -1)"> <g id="Spread" transform="translate(0 -16.5)"> <g id="Page background"> <path d="M 0.001,16.499 L 0.001,0 L 107.248,0 L 107.248,16.499 L 0.001,16.499 Z" stroke-linejoin="bevel" stroke="none" stroke-width="0" marker-start="none" marker-end="none" stroke-miterlimit="79.8403193612775"></path> </g> <g id="MouseOff"> <g id="Group" fill="#004374" fill-rule="nonzero" stroke-linejoin="round" stroke-linecap="round" stroke="none" stroke-width="1.494" stroke-miterlimit="79.8403193612775"> <path d="M 3.566,12.783 L 5.589,12.783 L 5.589,3.716 L 3.566,3.716 L 3.566,12.783 Z" marker-start="none" marker-end="none"></path> <path d="M 17.629,12.783 L 19.652,12.783 L 19.652,3.716 L 17.629,3.716 L 13.31,9.398 L 13.31,3.716 L 11.287,3.716 L 11.287,12.783 L 13.18,12.783 L 17.629,6.946 L 17.629,12.783 Z" marker-start="none" marker-end="none"></path> <path d="M 29.185,11.032 L 29.185,3.716 L 27.162,3.716 L 27.162,11.032 L 24.594,11.032 L 24.594,12.783 L 31.753,12.783 L 31.753,11.032 L 29.185,11.032 Z" marker-start="none" marker-end="none"></path> <path d="M 43.232,12.783 L 43.232,10.98 L 38.718,10.98 L 38.718,9.113 L 43.234,9.113 L 43.234,7.387 L 38.718,7.387 L 38.718,5.506 L 43.22,5.506 L 43.22,3.716 L 36.695,3.716 L 36.695,12.783 L 43.232,12.783 Z" marker-start="none" marker-end="none"></path> <path d="M 55.994,9.773 C 55.994,8.322 55.419,7.383 54.269,6.96 L 56.565,3.716 L 54.075,3.716 L 52.064,6.609 L 50.664,6.609 L 50.664,3.716 L 48.64,3.716 L 48.64,12.783 L 52.077,12.783 C 53.486,12.783 54.492,12.545 55.093,12.069 C 55.693,11.594 55.994,10.829 55.994,9.773 Z M 52.141,8.36 C 52.833,8.36 53.305,8.472 53.556,8.697 C 53.806,8.921 53.933,9.278 53.933,9.768 C 53.933,10.256 53.802,10.591 53.543,10.773 C 53.284,10.954 52.829,11.046 52.181,11.046 L 50.664,11.046 L 50.664,8.36 L 52.141,8.36 Z" marker-start="none" marker-end="none"></path> <path d="M 64.881,7.012 L 67.19,12.783 L 69.382,12.783 L 65.736,3.716 L 64.025,3.716 L 60.38,12.783 L 62.572,12.783 L 64.881,7.012 Z" marker-start="none" marker-end="none"></path> <path d="M 86.485,3.716 L 86.485,12.783 L 88.509,12.783 L 88.509,5.521 L 92.374,5.521 L 92.374,3.716 L 86.485,3.716 Z" marker-start="none" marker-end="none"></path> <path d="M 103.683,12.783 L 103.683,10.98 L 99.169,10.98 L 99.169,9.113 L 103.684,9.113 L 103.684,7.387 L 99.169,7.387 L 99.169,5.506 L 103.674,5.506 L 103.674,3.716 L 97.146,3.716 L 97.146,12.783 L 103.683,12.783 Z" marker-start="none" marker-end="none"></path> <path d="M 77.355,9.489 L 79.664,3.716 L 81.856,3.716 L 78.211,12.783 L 76.498,12.783 L 72.855,3.716 L 75.047,3.716 L 77.355,9.489 Z" marker-start="none" marker-end="none"></path> </g> </g> </g> </g> </svg> 